solid OpenSCAD_Model
  facet normal -1 0 0
    outer loop
      vertex 0 57.5 1.3
      vertex 0 56 1.3
      vertex 0 57.5 10.1
    endloop
  endfacet
  facet normal -1 0 0
    outer loop
      vertex 0 57.5 10.1
      vertex 0 104.5 11.6
      vertex 0 104.5 10.1
    endloop
  endfacet
  facet normal -1 0 0
    outer loop
      vertex 0 57.5 10.1
      vertex 0 56 11.6
      vertex 0 104.5 11.6
    endloop
  endfacet
  facet normal -1 0 0
    outer loop
      vertex 0 56 11.6
      vertex 0 57.5 10.1
      vertex 0 56 1.3
    endloop
  endfacet
  facet normal 0 0 1
    outer loop
      vertex 24.5 104.5 11.6
      vertex 14.75 56 11.6
      vertex 24.5 56 11.6
    endloop
  endfacet
  facet normal 0 0 1
    outer loop
      vertex 14.75 56 11.6
      vertex 9.75 56 11.6
      vertex 14.75 51 11.6
    endloop
  endfacet
  facet normal 0 0 1
    outer loop
      vertex 24.5 104.5 11.6
      vertex 9.75 56 11.6
      vertex 14.75 56 11.6
    endloop
  endfacet
  facet normal -0 0 1
    outer loop
      vertex 0 104.5 11.6
      vertex 9.75 56 11.6
      vertex 24.5 104.5 11.6
    endloop
  endfacet
  facet normal 0 0 1
    outer loop
      vertex 9.75 56 11.6
      vertex 0 104.5 11.6
      vertex 0 56 11.6
    endloop
  endfacet
  facet normal 0 0 1
    outer loop
      vertex 14.75 51 11.6
      vertex 9.75 56 11.6
      vertex 9.75 51 11.6
    endloop
  endfacet
  facet normal 1 0 0
    outer loop
      vertex 24.5 104.5 11.6
      vertex 24.5 57.5 10.1
      vertex 24.5 104.5 10.1
    endloop
  endfacet
  facet normal 1 -0 0
    outer loop
      vertex 24.5 56 11.6
      vertex 24.5 57.5 10.1
      vertex 24.5 104.5 11.6
    endloop
  endfacet
  facet normal 1 0 0
    outer loop
      vertex 24.5 56 1.3
      vertex 24.5 57.5 10.1
      vertex 24.5 56 11.6
    endloop
  endfacet
  facet normal 1 0 0
    outer loop
      vertex 24.5 57.5 10.1
      vertex 24.5 56 1.3
      vertex 24.5 57.5 1.3
    endloop
  endfacet
  facet normal 0 0 -1
    outer loop
      vertex 14.75 51 1.3
      vertex 9.75 51 1.3
      vertex 14.75 56 1.3
    endloop
  endfacet
  facet normal 0 0 -1
    outer loop
      vertex 14.75 56 1.3
      vertex 24.5 57.5 1.3
      vertex 24.5 56 1.3
    endloop
  endfacet
  facet normal 0 0 -1
    outer loop
      vertex 9.75 56 1.3
      vertex 14.75 56 1.3
      vertex 9.75 51 1.3
    endloop
  endfacet
  facet normal 0 0 -1
    outer loop
      vertex 9.75 56 1.3
      vertex 24.5 57.5 1.3
      vertex 14.75 56 1.3
    endloop
  endfacet
  facet normal 0 0 -1
    outer loop
      vertex 0 57.5 1.3
      vertex 9.75 56 1.3
      vertex 0 56 1.3
    endloop
  endfacet
  facet normal 0 0 -1
    outer loop
      vertex 9.75 56 1.3
      vertex 0 57.5 1.3
      vertex 24.5 57.5 1.3
    endloop
  endfacet
  facet normal 0 -1 0
    outer loop
      vertex 14.75 56 1.3
      vertex 24.5 56 11.6
      vertex 14.75 56 11.6
    endloop
  endfacet
  facet normal 0 -1 -0
    outer loop
      vertex 24.5 56 11.6
      vertex 14.75 56 1.3
      vertex 24.5 56 1.3
    endloop
  endfacet
  facet normal 0 -1 0
    outer loop
      vertex 0 56 1.3
      vertex 9.75 56 11.6
      vertex 0 56 11.6
    endloop
  endfacet
  facet normal 0 -1 -0
    outer loop
      vertex 9.75 56 11.6
      vertex 0 56 1.3
      vertex 9.75 56 1.3
    endloop
  endfacet
  facet normal 0 1 -0
    outer loop
      vertex 24.5 104.5 10.1
      vertex 0 104.5 11.6
      vertex 24.5 104.5 11.6
    endloop
  endfacet
  facet normal 0 1 0
    outer loop
      vertex 0 104.5 11.6
      vertex 24.5 104.5 10.1
      vertex 0 104.5 10.1
    endloop
  endfacet
  facet normal 0 0 -1
    outer loop
      vertex 0 57.5 10.1
      vertex 24.5 104.5 10.1
      vertex 24.5 57.5 10.1
    endloop
  endfacet
  facet normal -0 0 -1
    outer loop
      vertex 24.5 104.5 10.1
      vertex 0 57.5 10.1
      vertex 0 104.5 10.1
    endloop
  endfacet
  facet normal 0 1 -0
    outer loop
      vertex 24.5 57.5 1.3
      vertex 0 57.5 10.1
      vertex 24.5 57.5 10.1
    endloop
  endfacet
  facet normal 0 1 0
    outer loop
      vertex 0 57.5 10.1
      vertex 24.5 57.5 1.3
      vertex 0 57.5 1.3
    endloop
  endfacet
  facet normal -1 0 0
    outer loop
      vertex 9.75 51 1.3
      vertex 9.75 56 11.6
      vertex 9.75 56 1.3
    endloop
  endfacet
  facet normal -1 -0 0
    outer loop
      vertex 9.75 56 11.6
      vertex 9.75 51 1.3
      vertex 9.75 51 11.6
    endloop
  endfacet
  facet normal 1 -0 0
    outer loop
      vertex 14.75 51 11.6
      vertex 14.75 56 1.3
      vertex 14.75 56 11.6
    endloop
  endfacet
  facet normal 1 0 0
    outer loop
      vertex 14.75 56 1.3
      vertex 14.75 51 11.6
      vertex 14.75 51 1.3
    endloop
  endfacet
  facet normal 0 -1 0
    outer loop
      vertex 9.75 51 1.3
      vertex 14.75 51 11.6
      vertex 9.75 51 11.6
    endloop
  endfacet
  facet normal 0 -1 -0
    outer loop
      vertex 14.75 51 11.6
      vertex 9.75 51 1.3
      vertex 14.75 51 1.3
    endloop
  endfacet
endsolid OpenSCAD_Model
